HIERARCHY
ROOT Hips
{
	OFFSET 0.000000 0.000000 0.000000
	CHANNELS 6 Xposition Yposition Zposition Zrotation Yrotation Xrotation 
	JOINT LHipJoint
	{
		OFFSET 0.000000 0.000000 0.000000
		CHANNELS 3 Zrotation Yrotation Xrotation
		JOINT LeftUpLeg
		{
			OFFSET 1.363060 -1.794630 0.839290
			CHANNELS 3 Zrotation Yrotation Xrotation
			JOINT LeftLeg
			{
				OFFSET 2.448110 -6.726130 0.000000
				CHANNELS 3 Zrotation Yrotation Xrotation
				JOINT LeftFoot
				{
					OFFSET 2.562200 -7.039590 0.000000
					CHANNELS 3 Zrotation Yrotation Xrotation
					JOINT LeftToeBase
					{
						OFFSET 0.157640 -0.433110 2.322550
						CHANNELS 3 Zrotation Yrotation Xrotation
						End Site
						{
							OFFSET 0.000000 0.000000 0.000000
						}
					}
				}
			}
		}
	}
	JOINT RHipJoint
	{
		OFFSET 0.000000 0.000000 0.000000
		CHANNELS 3 Zrotation Yrotation Xrotation
		JOINT RightUpLeg
		{
			OFFSET -1.305520 -1.794630 0.839290
			CHANNELS 3 Zrotation Yrotation Xrotation
			JOINT RightLeg
			{
				OFFSET -2.542530 -6.985550 0.000000
				CHANNELS 3 Zrotation Yrotation Xrotation
				JOINT RightFoot
				{
					OFFSET -2.568260 -7.056230 0.000000
					CHANNELS 3 Zrotation Yrotation Xrotation
					JOINT RightToeBase
					{
						OFFSET -0.164730 -0.452590 2.363150
						CHANNELS 3 Zrotation Yrotation Xrotation
						End Site
						{
							OFFSET 0.000000 0.000000 0.000000
						}
					}
				}
			}
		}
	}
	JOINT LowerBack
	{
		OFFSET 0.000000 0.000000 0.000000
		CHANNELS 3 Zrotation Yrotation Xrotation
		JOINT Spine
		{
			OFFSET 0.028270 2.035590 -0.193380
			CHANNELS 3 Zrotation Yrotation Xrotation
			JOINT Spine1
			{
				OFFSET 0.056720 2.048850 -0.042750
				CHANNELS 3 Zrotation Yrotation Xrotation
				JOINT Neck
				{
					OFFSET 0.000000 0.000000 0.000000
					CHANNELS 3 Zrotation Yrotation Xrotation
					JOINT Neck1
					{
						OFFSET -0.054170 1.746240 0.172020
						CHANNELS 3 Zrotation Yrotation Xrotation
						JOINT Head
						{
							OFFSET 0.104070 1.761360 -0.123970
							CHANNELS 3 Zrotation Yrotation Xrotation
							End Site
							{
								OFFSET 0.000000 0.000000 0.000000
							}
						}
					}
				}
				JOINT LeftShoulder
				{
					OFFSET 0.000000 0.000000 0.000000
					CHANNELS 3 Zrotation Yrotation Xrotation
					JOINT LeftArm
					{
						OFFSET 3.362410 1.200890 -0.311210
						CHANNELS 3 Zrotation Yrotation Xrotation
						JOINT LeftForeArm
						{
							OFFSET 4.983000 -0.000000 -0.000000
							CHANNELS 3 Zrotation Yrotation Xrotation
							JOINT LeftHand
							{
								OFFSET 3.483560 -0.000000 -0.000000
								CHANNELS 3 Zrotation Yrotation Xrotation
								JOINT LeftFingerBase
								{
									OFFSET 0.000000 0.000000 0.000000
									CHANNELS 3 Zrotation Yrotation Xrotation
									JOINT LeftHandIndex1
									{
										OFFSET 0.715260 -0.000000 -0.000000
										CHANNELS 3 Zrotation Yrotation Xrotation
										End Site
										{
											OFFSET 0.000000 0.000000 0.000000
										}
									}
								}
								JOINT LThumb
								{
									OFFSET 0.000000 0.000000 0.000000
									CHANNELS 3 Zrotation Yrotation Xrotation
									End Site
									{
										OFFSET 0.000000 0.000000 0.000000
									}
								}
							}
						}
					}
				}
				JOINT RightShoulder
				{
					OFFSET 0.000000 0.000000 0.000000
					CHANNELS 3 Zrotation Yrotation Xrotation
					JOINT RightArm
					{
						OFFSET -3.136600 1.374050 -0.404650
						CHANNELS 3 Zrotation Yrotation Xrotation
						JOINT RightForeArm
						{
							OFFSET -5.241900 -0.000000 -0.000000
							CHANNELS 3 Zrotation Yrotation Xrotation
							JOINT RightHand
							{
								OFFSET -3.444170 -0.000000 -0.000000
								CHANNELS 3 Zrotation Yrotation Xrotation
								JOINT RightFingerBase
								{
									OFFSET 0.000000 0.000000 0.000000
									CHANNELS 3 Zrotation Yrotation Xrotation
									JOINT RightHandIndex1
									{
										OFFSET -0.622530 -0.000000 -0.000000
										CHANNELS 3 Zrotation Yrotation Xrotation
										End Site
										{
											OFFSET 0.000000 0.000000 0.000000
										}
									}
								}
								JOINT RThumb
								{
									OFFSET 0.000000 0.000000 0.000000
									CHANNELS 3 Zrotation Yrotation Xrotation
									End Site
									{
										OFFSET 0.000000 0.000000 0.000000
									}
								}
							}
						}
					}
				}
			}
		}
	}
}
MOTION
Frames: 4
Frame Time: 0.008333
9.918315 16.290848 34.979197 179.927406 -2.521925 -140.168449 10.700158 0.187462 -2.907707 -11.202922 -26.357315 -60.243560 6.226135 21.406686 53.803709 0.524329 -17.111284 -31.125688 0.350600 -3.804500 -10.527300 -14.005756 -1.848326 -0.868163 17.064676 27.056821 -59.773056 -5.162054 -21.778608 51.845325 -3.811821 2.464112 -39.039629 -2.632700 10.075400 -29.221100 -1.565402 0.165080 -9.276078 1.485667 -0.243363 -5.033171 -0.313480 -0.289579 7.185400 -8.485584 3.591490 -2.367990 10.599550 0.062131 -14.097654 2.061400 -2.200400 -7.196200 15.997065 -2.842493 0.561706 -99.804503 -4.451559 17.262876 9.998922 -10.536402 -1.185273 -1.283364 1.266735 11.962331 17.938223 -9.883224 -3.794900 -7.125000 0.000000 0.000000 -5.373900 18.546300 3.400500 -10.612787 -0.928582 -0.135007 95.291102 -3.981761 2.386538 -8.484425 16.531231 -1.724853 1.176885 3.900412 10.542546 -7.790922 -47.749389 6.488400 7.125000 0.000000 0.000000 64.360600 -73.897500 -48.488700 
9.919410 16.212026 34.947668 179.892255 -2.402646 -140.155898 10.713838 0.207127 -2.919415 -11.297294 -26.141753 -60.750554 6.596090 21.671391 54.993046 0.478005 -17.837205 -31.291143 0.270500 -3.345500 -9.242200 -14.004202 -1.860151 -0.873416 16.791920 27.279310 -60.447297 -5.584384 -22.148098 53.213124 -3.930546 2.255215 -39.518014 -2.755000 10.287600 -29.913000 -1.588177 0.217898 -9.160728 1.477144 -0.162327 -5.023267 -0.328507 -0.250847 7.142501 -8.506348 3.665531 -2.297922 10.482838 0.146384 -14.170361 2.023900 -2.158900 -7.243300 15.967141 -2.899864 0.574959 -99.954337 -4.868077 16.805743 9.837584 -10.241585 -1.129571 -1.277953 1.266064 12.654722 17.926928 -9.490409 -3.652700 -7.125000 0.000000 0.000000 -5.372000 18.975900 3.348000 -10.608295 -0.889582 -0.137809 95.258127 -3.651326 2.730094 -8.509866 16.547829 -1.733886 1.166230 3.897780 10.382949 -7.730135 -47.657770 6.432400 7.125000 0.000000 0.000000 64.078500 -73.839200 -48.174100 
9.919410 16.137693 34.906067 179.840344 -2.304424 -140.400446 10.723157 0.222120 -2.927277 -11.581703 -26.017629 -60.869773 6.965528 21.916234 56.162661 0.548080 -18.063705 -31.654817 0.334800 -3.718300 -10.285500 -13.994809 -1.854526 -0.892234 16.798030 27.301482 -60.560821 -5.937605 -22.408208 54.311500 -4.042601 2.176235 -39.935427 -2.899000 10.529700 -30.709600 -1.579100 0.356720 -8.832834 1.417441 0.050779 -4.966568 -0.458031 -0.144034 7.104035 -8.519163 3.572855 -2.143962 10.520641 -0.022591 -14.347608 2.066600 -2.250700 -7.341900 15.945844 -2.974985 0.586293 -100.016770 -5.358492 16.757067 9.739757 -10.046612 -1.096193 -1.267705 1.263444 13.237003 17.887230 -9.167581 -3.528300 -7.125000 0.000000 0.000000 -5.397200 19.332600 3.320800 -10.640133 -0.852220 -0.136531 95.473060 -3.329838 2.837700 -8.631927 16.725298 -1.780319 1.166793 3.899680 10.191507 -7.892537 -47.788848 6.582901 7.125000 0.000000 0.000000 64.397100 -73.952200 -48.581400 
9.921380 16.059747 34.863372 179.784061 -2.045366 -140.405615 10.745188 0.242938 -2.941446 -11.798013 -25.809992 -61.266241 7.353356 22.169142 57.369647 0.557507 -18.424242 -31.833386 0.300700 -3.525900 -9.746500 -13.982794 -1.859303 -0.901168 16.518435 27.495666 -61.080637 -6.360684 -22.723487 55.601968 -4.180112 2.478743 -40.348023 -2.931900 10.584000 -30.889400 -1.703092 0.497855 -8.838593 1.330316 0.275123 -4.930675 -0.589324 -0.040130 7.176186 -8.488254 3.463752 -2.092266 10.643631 -0.219296 -14.569473 2.134700 -2.378700 -7.433800 15.942150 -3.028189 0.587484 -99.984521 -5.687709 17.199047 9.756020 -10.050718 -1.100326 -1.262812 1.250124 13.294623 17.837280 -9.026836 -3.464300 -7.125000 0.000000 0.000000 -5.436200 19.497600 3.325000 -10.675836 -0.835557 -0.140483 95.736795 -2.899232 3.223933 -8.724587 16.861347 -1.820362 1.198834 3.867279 9.954083 -8.578767 -47.442393 7.131600 7.125000 0.000000 0.000000 62.705900 -74.082500 -47.228600 
